<svg width="32" height="17" viewBox="0 0 32 17" fill="none" xmlns="http://www.w3.org/2000/svg">
<path d="M0.999974 2.49995H30.9999C31.552 2.49995 31.9999 2.05191 31.9999 1.49997C31.9999 0.947952 31.5519 0.5 30.9999 0.5H0.999974C0.447952 0.5 0 0.948035 0 1.49997C0 2.05191 0.448035 2.49995 0.999974 2.49995Z" fill="white"/>
<path d="M30.9999 7.5H0.999974C0.447952 7.5 0 7.94803 0 8.49997C0 9.0519 0.448035 9.49993 0.999974 9.49993H30.9999C31.552 9.49993 31.9999 9.0519 31.9999 8.49997C31.9999 7.94803 31.552 7.5 30.9999 7.5Z" fill="white"/>
<path d="M30.9999 14.5H11C10.448 14.5 10 14.948 10 15.5C10 16.052 10.448 16.4999 11 16.4999H30.9999C31.552 16.4999 31.9999 16.0519 31.9999 15.5C32 14.948 31.552 14.5 30.9999 14.5Z" fill="white"/>
</svg>
