<svg width="24" height="24" viewBox="0 0 24 24" fill="none" xmlns="http://www.w3.org/2000/svg">
<path fill-rule="evenodd" clip-rule="evenodd" d="M0.226756 0.226756C0.529097 -0.0755854 1.01929 -0.0755854 1.32163 0.226756L12 10.9051L22.6784 0.226756C22.9807 -0.0755854 23.4709 -0.0755854 23.7732 0.226756C24.0756 0.529097 24.0756 1.01929 23.7732 1.32163L13.0949 12L23.7732 22.6784C24.0756 22.9807 24.0756 23.4709 23.7732 23.7732C23.4709 24.0756 22.9807 24.0756 22.6784 23.7732L12 13.0949L1.32163 23.7732C1.01929 24.0756 0.529097 24.0756 0.226756 23.7732C-0.0755854 23.4709 -0.0755854 22.9807 0.226756 22.6784L10.9051 12L0.226756 1.32163C-0.0755854 1.01929 -0.0755854 0.529097 0.226756 0.226756Z" fill="#333333"/>
</svg>
