<svg width="27" height="26" viewBox="0 0 27 26" fill="none" xmlns="http://www.w3.org/2000/svg">
<g clip-path="url(#clip0)">
<path d="M24.497 16.333C24.1393 16.333 23.8494 16.6229 23.8494 16.9805V22.7299C23.8482 23.8024 22.9793 24.6715 21.9068 24.6725H3.73767C2.66519 24.6715 1.79633 23.8024 1.79507 22.7299V5.85584C1.79633 4.78361 2.66519 3.9145 3.73767 3.91323H9.48707C9.84473 3.91323 10.1346 3.62336 10.1346 3.2657C10.1346 2.90829 9.84473 2.61816 9.48707 2.61816H3.73767C1.95038 2.62019 0.502024 4.06854 0.5 5.85584V22.7302C0.502024 24.5175 1.95038 25.9658 3.73767 25.9679H21.9068C23.6941 25.9658 25.1425 24.5175 25.1445 22.7302V16.9805C25.1445 16.6229 24.8546 16.333 24.497 16.333Z" fill="#333333"/>
<path d="M24.8882 0.952127C23.7502 -0.185865 21.9053 -0.185865 20.7673 0.952127L9.21485 12.5046C9.13568 12.5837 9.07851 12.6819 9.04867 12.7896L7.52949 18.2742C7.46701 18.4991 7.5305 18.7399 7.69542 18.905C7.86059 19.0699 8.10139 19.1334 8.32626 19.0712L13.8108 17.5518C13.9186 17.5219 14.0167 17.4648 14.0959 17.3856L25.6481 5.83292C26.7843 4.69417 26.7843 2.85072 25.6481 1.71197L24.8882 0.952127ZM10.6258 12.9254L20.0805 3.47043L23.1298 6.51966L13.6747 15.9747L10.6258 12.9254ZM10.0167 14.1477L12.4528 16.584L9.08307 17.5176L10.0167 14.1477ZM24.7324 4.91726L24.0457 5.60401L20.9962 2.55452L21.6832 1.86778C22.3153 1.23568 23.3402 1.23568 23.9723 1.86778L24.7324 2.62762C25.3635 3.26049 25.3635 4.28465 24.7324 4.91726Z" fill="#333333"/>
</g>
<defs>
<clipPath id="clip0">
<rect width="26" height="26" fill="white" transform="translate(0.5)"/>
</clipPath>
</defs>
</svg>
