<svg width="28" height="28" viewBox="0 0 28 28" fill="none" xmlns="http://www.w3.org/2000/svg">
<path d="M20.4206 0H7.57933C3.40002 0 0 3.40002 0 7.57933V20.4208C0 24.5999 3.40002 27.9999 7.57933 27.9999H20.4208C24.5999 27.9999 27.9999 24.5999 27.9999 20.4208V7.57933C27.9999 3.40002 24.5999 0 20.4206 0V0ZM26.3585 20.4208C26.3585 23.6948 23.6948 26.3585 20.4206 26.3585H7.57933C4.30514 26.3585 1.64148 23.6948 1.64148 20.4208V7.57933C1.64148 4.30514 4.30514 1.64148 7.57933 1.64148H20.4208C23.6948 1.64148 26.3585 4.30514 26.3585 7.57933V20.4208Z" fill="white"/>
<path d="M14 6.34375C9.77841 6.34375 6.34399 9.77816 6.34399 13.9998C6.34399 18.2214 9.77841 21.6558 14 21.6558C18.2216 21.6558 21.656 18.2214 21.656 13.9998C21.656 9.77816 18.2216 6.34375 14 6.34375ZM14 20.0143C10.6837 20.0143 7.98547 17.3163 7.98547 13.9998C7.98547 10.6835 10.6837 7.98523 14 7.98523C17.3165 7.98523 20.0146 10.6835 20.0146 13.9998C20.0146 17.3163 17.3165 20.0143 14 20.0143Z" fill="white"/>
<path d="M21.8389 3.625C20.5914 3.625 19.5767 4.63992 19.5767 5.88726C19.5767 7.13482 20.5914 8.14974 21.8389 8.14974C23.0865 8.14974 24.1014 7.13482 24.1014 5.88726C24.1014 4.63971 23.0865 3.625 21.8389 3.625ZM21.8389 6.50805C21.4967 6.50805 21.2181 6.22949 21.2181 5.88726C21.2181 5.54483 21.4967 5.26648 21.8389 5.26648C22.1814 5.26648 22.4599 5.54483 22.4599 5.88726C22.4599 6.22949 22.1814 6.50805 21.8389 6.50805Z" fill="white"/>
</svg>
