<svg width="20" height="20" viewBox="0 0 20 20" fill="none" xmlns="http://www.w3.org/2000/svg">
<path d="M8.54172 9.375H0.625C0.279999 9.375 0 9.095 0 8.75C0 8.405 0.279999 8.125 0.625 8.125H8.54172C8.88672 8.125 9.16672 8.405 9.16672 8.75C9.16672 9.095 8.88672 9.375 8.54172 9.375Z" fill="#333333"/>
<path d="M5.41675 12.5001C5.25668 12.5001 5.09677 12.4392 4.97501 12.3169C4.73087 12.0726 4.73087 11.6768 4.97501 11.4326L7.65842 8.74936L4.97501 6.06686C4.73087 5.82257 4.73087 5.42676 4.97501 5.18262C5.21915 4.93848 5.61496 4.93848 5.85925 5.18262L8.98425 8.30762C9.22839 8.55176 9.22839 8.94757 8.98425 9.19186L5.85925 12.3169C5.73672 12.4392 5.57666 12.5001 5.41675 12.5001Z" fill="#333333"/>
<path d="M13.3333 19.9997C12.4141 19.9997 11.6667 19.2522 11.6667 18.333V3.33298C11.6667 2.62054 12.12 1.98471 12.7949 1.75049L17.8016 0.0813271C18.9216 -0.261996 20 0.568846 20 1.66641V16.6664C20 17.3781 19.5466 18.013 18.8725 18.248L13.8641 19.9181C13.6816 19.9747 13.5125 19.9997 13.3333 19.9997ZM18.3333 1.24969C18.2791 1.24969 18.2333 1.25641 18.1842 1.27136L13.1984 2.93381C13.0349 2.99057 12.9167 3.15552 12.9167 3.33298V18.333C12.9167 18.6172 13.2249 18.8089 13.4825 18.728L18.4683 17.0656C18.6308 17.0088 18.75 16.8439 18.75 16.6664V1.66641C18.75 1.43722 18.5634 1.24969 18.3333 1.24969Z" fill="#333333"/>
<path d="M7.29169 4.16672C6.94669 4.16672 6.66669 3.88672 6.66669 3.54172V2.29172C6.66669 1.02753 7.69406 0 8.95825 0H18.3333C18.6783 0 18.9583 0.279999 18.9583 0.625C18.9583 0.970001 18.6783 1.25 18.3333 1.25H8.95825C8.38406 1.25 7.91669 1.71753 7.91669 2.29172V3.54172C7.91669 3.88672 7.63669 4.16672 7.29169 4.16672Z" fill="#333333"/>
<path d="M12.2917 17.5002H8.95825C7.69406 17.5002 6.66669 16.4727 6.66669 15.2085V13.9585C6.66669 13.6135 6.94669 13.3335 7.29169 13.3335C7.63669 13.3335 7.91669 13.6135 7.91669 13.9585V15.2085C7.91669 15.7827 8.38406 16.2502 8.95825 16.2502H12.2917C12.6367 16.2502 12.9167 16.5302 12.9167 16.8752C12.9167 17.2202 12.6367 17.5002 12.2917 17.5002Z" fill="#333333"/>
</svg>
