<svg width="20" height="20" viewBox="0 0 20 20" fill="none" xmlns="http://www.w3.org/2000/svg">
<g clip-path="url(#clip0)">
<path d="M19.3745 9.37546H11.458C11.113 9.37546 10.833 9.09547 10.833 8.75047C10.833 8.40548 11.113 8.12549 11.458 8.12549H19.3745C19.7194 8.12549 19.9994 8.40548 19.9994 8.75047C19.9994 9.09547 19.7194 9.37546 19.3745 9.37546Z" fill="#333333"/>
<path d="M16.2497 12.5003C16.0896 12.5003 15.9297 12.4394 15.808 12.317C15.5638 12.0727 15.5638 11.6769 15.808 11.4328L18.4913 8.74962L15.808 6.0663C15.5638 5.82217 15.5638 5.42637 15.808 5.18224C16.0523 4.93795 16.4481 4.93795 16.6922 5.18224L19.8171 8.30713C20.0612 8.55127 20.0612 8.94707 19.8171 9.1912L16.6922 12.3161C16.5697 12.4394 16.4098 12.5003 16.2497 12.5003Z" fill="#333333"/>
<path d="M6.66651 20.0004C6.48814 20.0004 6.31892 19.9753 6.14986 19.9228L1.13491 18.2521C0.452562 18.0137 0 17.3779 0 16.6672V1.66764C0 0.748481 0.747505 0.000976562 1.66667 0.000976562C1.84488 0.000976562 2.0141 0.0260002 2.18331 0.0784888L7.19811 1.74927C7.88061 1.98761 8.33302 2.62342 8.33302 3.33415V18.3337C8.33302 19.2528 7.58567 20.0004 6.66651 20.0004ZM1.66667 1.25094C1.43749 1.25094 1.24996 1.43846 1.24996 1.66764V16.6672C1.24996 16.8446 1.36913 17.0096 1.53911 17.0688L6.53056 18.7321C6.56641 18.7437 6.6131 18.7504 6.66651 18.7504C6.89569 18.7504 7.08306 18.5629 7.08306 18.3337V3.33415C7.08306 3.1567 6.96389 2.99176 6.79392 2.93256L1.80246 1.26925C1.76661 1.25765 1.71992 1.25094 1.66667 1.25094Z" fill="#333333"/>
<path d="M12.7081 6.66749C12.3631 6.66749 12.0831 6.3875 12.0831 6.04251V2.29262C12.0831 1.71845 11.6157 1.25094 11.0416 1.25094H1.66685C1.32186 1.25094 1.04187 0.970948 1.04187 0.625957C1.04187 0.280967 1.32186 0.000976562 1.66685 0.000976562H11.0416C12.3057 0.000976562 13.3331 1.02847 13.3331 2.29262V6.04251C13.3331 6.3875 13.0531 6.66749 12.7081 6.66749Z" fill="#333333"/>
<path d="M11.0416 17.5H7.70823C7.36324 17.5 7.08325 17.22 7.08325 16.875C7.08325 16.53 7.36324 16.25 7.70823 16.25H11.0416C11.6157 16.25 12.0831 15.7825 12.0831 15.2083V11.4585C12.0831 11.1135 12.3631 10.8335 12.7081 10.8335C13.0531 10.8335 13.3331 11.1135 13.3331 11.4585V15.2083C13.3331 16.4725 12.3057 17.5 11.0416 17.5Z" fill="#333333"/>
</g>
<defs>
<clipPath id="clip0">
<rect width="20" height="20" fill="white"/>
</clipPath>
</defs>
</svg>
