<svg width="28" height="22" viewBox="0 0 28 22" fill="none" xmlns="http://www.w3.org/2000/svg">
<path d="M27.7687 0.687636C27.4944 0.352875 27.0396 0.228732 26.6352 0.377704L0.950866 9.67758C0.437743 9.86443 0.0775747 10.3176 0.0107107 10.8602C-0.0555124 11.4002 0.182036 11.9242 0.627654 12.2257L4.29898 14.7369C4.65466 14.9802 5.11203 15.0063 5.49292 14.8049L13.4568 10.5971L7.24997 15.2407C6.95859 15.4588 6.78448 15.8066 6.78448 16.1709V20.4723C6.78448 20.916 7.02737 21.3225 7.4183 21.5335C7.80987 21.7446 8.28284 21.7236 8.65475 21.4779L11.444 19.6241L14.1869 21.498C14.4273 21.663 14.7135 21.7499 15.0023 21.7499C15.1 21.7499 15.198 21.7399 15.2946 21.7197C15.6797 21.6393 16.0205 21.4008 16.2296 21.0656L27.8501 1.86657C28.0763 1.49692 28.0438 1.02389 27.7687 0.687636ZM14.941 20.0226L12.1005 18.0819C11.9029 17.9466 11.6752 17.879 11.4477 17.879C11.2251 17.879 11.0023 17.9438 10.8072 18.0735L8.42596 19.6562V16.4137L19.3859 8.21396C19.8753 7.84774 19.9986 7.18121 19.6724 6.66366C19.3459 6.14611 18.6925 5.97124 18.1522 6.25677L4.9845 13.2142L1.87927 11.0902L25.531 2.52646L14.941 20.0226Z" fill="white"/>
</svg>
